<?xml version="1.0" encoding="UTF-8" standalone="no"?>
<svg
   xmlns:dc="http://purl.org/dc/elements/1.1/"
   xmlns:cc="http://creativecommons.org/ns#"
   xmlns:rdf="http://www.w3.org/1999/02/22-rdf-syntax-ns#"
   xmlns:svg="http://www.w3.org/2000/svg"
   xmlns="http://www.w3.org/2000/svg"
   xmlns:sodipodi="http://sodipodi.sourceforge.net/DTD/sodipodi-0.dtd"
   xmlns:inkscape="http://www.inkscape.org/namespaces/inkscape"
   version="1.1"
   width="1251"
   height="504"
   viewBox="225.83 130.91 1251 504"
   xml:space="preserve"
   id="svg40"
   sodipodi:docname="built.svg"><metadata
   id="metadata44"><rdf:RDF><cc:Work
       rdf:about=""><dc:format>image/svg+xml</dc:format><dc:type
         rdf:resource="http://purl.org/dc/dcmitype/StillImage" /></cc:Work></rdf:RDF></metadata><sodipodi:namedview
   pagecolor="#ffffff"
   bordercolor="#666666"
   borderopacity="1"
   objecttolerance="10"
   gridtolerance="10"
   guidetolerance="10"
   inkscape:pageopacity="0"
   inkscape:pageshadow="2"
   inkscape:window-width="640"
   inkscape:window-height="480"
   id="namedview42"
   fit-margin-top="67"
   fit-margin-left="67"
   fit-margin-right="67"
   fit-margin-bottom="67" />
<desc
   id="desc2">Created with Fabric.js 5.3.0</desc>
<defs
   id="defs4">
</defs>
<rect
   width="1251.1"
   height="504.10001"
   fill="#ffffff"
   x="225.83"
   y="130.91"
   id="rect6" /><g
   transform="matrix(1.73,0,0,1.73,1070.59,385.81)"
   id="base_text">
		<g
   aria-label="VJSP"
   id="text10"
   style="font-style:normal;font-weight:normal;font-size:120px;font-family:f48;white-space:pre;opacity:1;fill:#00008b;fill-rule:nonzero;stroke:none;stroke-width:1;stroke-linecap:butt;stroke-linejoin:miter;stroke-miterlimit:4;stroke-dasharray:none;stroke-dashoffset:0"><path
     d="m -137.62,26.540001 h -10.56 l 34.68,-78.84 h 26.279997 l -41.879997,90 h -28.2 l -41.88,-90 h 26.64 z"
     id="path46" /><path
     d="m -95.140186,-6.5799992 h 24.36 v 3 q 0,10.56 4.32,16.2000002 4.44,5.52 14.64,5.52 9.96,0 14.52,-5.16 4.56,-5.2800002 4.56,-14.6400002 V -52.299999 h 24.8399998 v 51.95999976 q 0,12.48000024 -5.5199998,21.48000024 -5.52,9 -15.36,13.8 -9.84,4.68 -23.04,4.68 -12.96,0 -22.8,-4.92 -9.72,-4.92 -15.12,-14.16 -5.28,-9.36 -5.28,-22.2000002 z"
     id="path48" /><path
     d="M 3.7397845,8.1800008 H 29.059785 q 0.6,3.7200002 3.48,6.4800002 2.88,2.76 7.68,4.32 4.92,1.44 11.52,1.44 9.12,0 14.4,-2.28 5.28,-2.4 5.28,-6.96 0,-3.4800002 -3,-5.4000002 -3,-1.92 -11.52,-2.76 l -16.8,-1.56 q -18.6,-1.68000004 -27,-8.4 -8.4000005,-6.8399998 -8.4000005,-18.3599998 0,-9.36 5.4000005,-15.84 5.52,-6.48 15.36,-9.72 9.96,-3.36 23.16,-3.36 12.96,0 23.04,3.72 10.08,3.6 15.96,10.32 6,6.72 6.48,15.6 h -25.2 q -0.48,-3.24 -3.12,-5.52 -2.52,-2.4 -6.96,-3.6 -4.44,-1.32 -10.68,-1.32 -8.4,0 -13.32,2.28 -4.92,2.16 -4.92,6.48 0,3.12 2.88,5.04 3,1.92 10.68,2.64 l 17.88,1.8 q 12.84,1.2 20.52,4.2 7.68,2.8799998 11.16,8.0399998 3.48,5.15999996 3.48,12.84 0,9.4800002 -5.64,16.5600002 -5.64,6.96 -15.84,10.92 -10.2,3.84 -23.76,3.84 -13.92,0 -24.6,-3.84 -10.56,-3.96 -16.56,-11.04 -6.0000005,-7.2 -6.3600005,-16.5600002 z"
     id="path50" /><path
     d="m 159.49961,-52.299999 q 11.28,0 19.44,3.84 8.28,3.84 12.6,10.92 4.32,6.96 4.32,16.32 0,9.24 -4.32,16.3199998 -4.32,6.96 -12.6,10.8 -8.16,3.84 -19.44,3.84 h -39 V -10.179999 h 37.44 q 6,0 9.36,-2.88 3.36,-3 3.36,-8.16 0,-5.28 -3.36,-8.16 -3.36,-3 -9.36,-3 h -35.28 l 11.16,-11.52 v 81.6 h -24.84 v -90 z"
     id="path52" /></g>
</g><g
   transform="matrix(0.76,0,0,0.76,482.42,383)"
   id="main_icon">
<g
   id="g37">
		<g
   transform="matrix(0.59,0,0,0.59,-1.03,0.67)"
   id="g15">
<path
   style="opacity:1;fill:#00008b;fill-rule:nonzero;stroke:none;stroke-width:0;stroke-linecap:butt;stroke-linejoin:miter;stroke-miterlimit:4;stroke-dasharray:none;stroke-dashoffset:0"
   transform="translate(-422.47,-413.47)"
   d="M 258.84,463.17 V 605.42 H 582.53 V 316.88 h 162.23 v 408.3 H 100.18 V 101.76 h 431.35 v 56.79 H 158.6 v 245.86 h 41.59 V 203.25 h 330.95 v 56.71 H 258.8 v 144.75 h 272.7 v 58.46 z M 158.37,684.81 h 528.14 v -309.8 h -44.08 v 270.3 H 199.86 V 463.96 h -41.5 v 220.85 z"
   stroke-linecap="round"
   id="path13" />
</g>
		<g
   transform="matrix(0.59,0,0,0.59,-0.06,-0.21)"
   id="g19">
<path
   style="opacity:1;fill:#00008b;fill-rule:nonzero;stroke:none;stroke-width:0;stroke-linecap:butt;stroke-linejoin:miter;stroke-miterlimit:4;stroke-dasharray:none;stroke-dashoffset:0"
   transform="translate(-424.12,-411.97)"
   d="M 57.49,766.28 H 790.15 V 258.51 h 58.08 V 823.74 H 0 V 0.21 H 531.53 V 56.85 H 57.49 Z"
   stroke-linecap="round"
   id="path17" />
</g>
		<g
   transform="matrix(0.59,0,0,0.59,147.61,-133.37)"
   id="g23">
<path
   style="opacity:1;fill:#00008b;fill-rule:nonzero;stroke:none;stroke-width:0;stroke-linecap:butt;stroke-linejoin:miter;stroke-miterlimit:4;stroke-dasharray:none;stroke-dashoffset:0"
   transform="translate(-674.38,-186.28)"
   d="m 674.99,272.74 c -48.62,0.1 -87.43,-37.63 -87.5,-85.07 -0.07,-49.96 38.04,-87.76 88.59,-87.86 47.14,-0.1 85.13,38.83 85.2,87.28 0.06,49.1 -36.65,85.55 -86.28,85.65 z"
   stroke-linecap="round"
   id="path21" />
</g>
		<g
   transform="matrix(0.59,0,0,0.59,171.9,-196.63)"
   id="g27">
<path
   style="opacity:1;fill:#00008b;fill-rule:nonzero;stroke:none;stroke-width:0;stroke-linecap:butt;stroke-linejoin:miter;stroke-miterlimit:4;stroke-dasharray:none;stroke-dashoffset:0"
   transform="translate(-715.57,-79.06)"
   d="M 790.86,57.31 H 582.71 V 0 h 265.71 v 158.12 h -57.56 z"
   stroke-linecap="round"
   id="path25" />
</g>
		<g
   transform="matrix(0.59,0,0,0.59,-4.92,72.98)"
   id="g31">
<path
   style="opacity:1;fill:#00008b;fill-rule:nonzero;stroke:none;stroke-width:0;stroke-linecap:butt;stroke-linejoin:miter;stroke-miterlimit:4;stroke-dasharray:none;stroke-dashoffset:0"
   transform="translate(-415.85,-536.01)"
   d="M 531.52,564.63 H 300.19 V 507.4 h 231.33 z"
   stroke-linecap="round"
   id="path29" />
</g>
		<g
   transform="matrix(0.59,0,0,0.59,-4.79,-47.09)"
   id="g35">
<path
   style="opacity:1;fill:#00008b;fill-rule:nonzero;stroke:none;stroke-width:0;stroke-linecap:butt;stroke-linejoin:miter;stroke-miterlimit:4;stroke-dasharray:none;stroke-dashoffset:0"
   transform="translate(-416.08,-332.5)"
   d="M 300.62,360.9 V 304.11 H 531.55 V 360.9 Z"
   stroke-linecap="round"
   id="path33" />
</g>
</g>
</g></svg>
